name ./resultDataOpenSim/trcMotMarkerGrf/sub10/grf-12-06.mot
datacolumns 19
datarows 15
range 1.44800000 1.50400000
endheader

                time	     ground_force_vx	     ground_force_vy	     ground_force_vz	     ground_force_px	     ground_force_py	     ground_force_pz	   l_ground_force_vx	   l_ground_force_vy	   l_ground_force_vz	   l_ground_force_px	   l_ground_force_py	   l_ground_force_pz	     ground_torque_x	     ground_torque_y	     ground_torque_z	   l_ground_torque_x	   l_ground_torque_y	   l_ground_torque_z	
          1.44800000	        -12.78470502	        371.97673964	        -13.31139340	          0.82451452	          0.00000000	          0.03273583	          0.00000000	          0.00000000	          0.00000000	          0.00000000	          0.00000000	          0.00000000	          0.00000000	          1.84045464	          0.00000000	          0.00000000	          0.00000000	          0.00000000	
          1.45200000	        -11.73570820	        371.74627268	        -13.23136907	          0.82470855	          0.00000000	          0.03236062	          0.00000000	          0.00000000	          0.00000000	          0.00000000	          0.00000000	          0.00000000	          0.00000000	          1.96975987	          0.00000000	          0.00000000	          0.00000000	          0.00000000	
          1.45600000	        -10.58592464	        372.11884617	        -13.62893021	          0.82482531	          0.00000000	          0.03198618	          0.00000000	          0.00000000	          0.00000000	          0.00000000	          0.00000000	          0.00000000	          0.00000000	          2.13235593	          0.00000000	          0.00000000	          0.00000000	          0.00000000	
          1.46000000	         -9.16251865	        373.08960967	        -14.32838532	          0.82483737	          0.00000000	          0.03160535	          0.00000000	          0.00000000	          0.00000000	          0.00000000	          0.00000000	          0.00000000	          0.00000000	          2.31929951	          0.00000000	          0.00000000	          0.00000000	          0.00000000	
          1.46400000	         -7.36744366	        374.65443787	        -15.10480364	          0.82475451	          0.00000000	          0.03120399	          0.00000000	          0.00000000	          0.00000000	          0.00000000	          0.00000000	          0.00000000	          0.00000000	          2.51711306	          0.00000000	          0.00000000	          0.00000000	          0.00000000	
          1.46800000	         -5.19440638	        376.81862083	        -15.72529652	          0.82460183	          0.00000000	          0.03076351	          0.00000000	          0.00000000	          0.00000000	          0.00000000	          0.00000000	          0.00000000	          0.00000000	          2.71066484	          0.00000000	          0.00000000	          0.00000000	          0.00000000	
          1.47200000	         -2.72500952	        379.60613023	        -15.98560003	          0.82440714	          0.00000000	          0.03026466	          0.00000000	          0.00000000	          0.00000000	          0.00000000	          0.00000000	          0.00000000	          0.00000000	          2.88700360	          0.00000000	          0.00000000	          0.00000000	          0.00000000	
          1.47600000	         -0.10957786	        383.08459343	        -15.74096671	          0.82420402	          0.00000000	          0.02969279	          0.00000000	          0.00000000	          0.00000000	          0.00000000	          0.00000000	          0.00000000	          0.00000000	          3.03865702	          0.00000000	          0.00000000	          0.00000000	          0.00000000	
          1.48000000	          2.46591246	        387.37762381	        -14.92962938	          0.82402735	          0.00000000	          0.02903823	          0.00000000	          0.00000000	          0.00000000	          0.00000000	          0.00000000	          0.00000000	          0.00000000	          3.16505651	          0.00000000	          0.00000000	          0.00000000	          0.00000000	
          1.48400000	          4.82817214	        392.62704862	        -13.58685758	          0.82392356	          0.00000000	          0.02830315	          0.00000000	          0.00000000	          0.00000000	          0.00000000	          0.00000000	          0.00000000	          0.00000000	          3.27175468	          0.00000000	          0.00000000	          0.00000000	          0.00000000	
          1.48800000	          6.86876045	        398.92477170	        -11.84409525	          0.82392989	          0.00000000	          0.02750706	          0.00000000	          0.00000000	          0.00000000	          0.00000000	          0.00000000	          0.00000000	          0.00000000	          3.36821488	          0.00000000	          0.00000000	          0.00000000	          0.00000000	
          1.49200000	          8.57873587	        406.27328495	         -9.90910790	          0.82402949	          0.00000000	          0.02668215	          0.00000000	          0.00000000	          0.00000000	          0.00000000	          0.00000000	          0.00000000	          0.00000000	          3.46540931	          0.00000000	          0.00000000	          0.00000000	          0.00000000	
          1.49600000	         10.05337750	        414.59761137	         -8.02830312	          0.82417801	          0.00000000	          0.02586550	          0.00000000	          0.00000000	          0.00000000	          0.00000000	          0.00000000	          0.00000000	          0.00000000	          3.57405714	          0.00000000	          0.00000000	          0.00000000	          0.00000000	
          1.50000000	         11.46828605	        423.77569696	         -6.43772141	          0.82433100	          0.00000000	          0.02509045	          0.00000000	          0.00000000	          0.00000000	          0.00000000	          0.00000000	          0.00000000	          0.00000000	          3.70348644	          0.00000000	          0.00000000	          0.00000000	          0.00000000	
          1.50400000	         13.03661222	        433.65902182	         -5.31695090	          0.82446190	          0.00000000	          0.02438533	          0.00000000	          0.00000000	          0.00000000	          0.00000000	          0.00000000	          0.00000000	          0.00000000	          3.86055887	          0.00000000	          0.00000000	          0.00000000	          0.00000000	
